<?xml version="1.0" encoding="UTF-8" standalone="no"?>
<!DOCTYPE svg PUBLIC "-//W3C//DTD SVG 1.1//EN" "http://www.w3.org/Graphics/SVG/1.1/DTD/svg11.dtd">
<svg width="100%" height="100%" viewBox="0 0 1536 1536" version="1.1" xmlns="http://www.w3.org/2000/svg" xmlns:xlink="http://www.w3.org/1999/xlink" xml:space="preserve" xmlns:serif="http://www.serif.com/" style="fill-rule:evenodd;clip-rule:evenodd;stroke-linecap:round;stroke-linejoin:round;stroke-miterlimit:1.5;">
    <g transform="matrix(1,0,0,1,-472.441,-167.593)">
        <g transform="matrix(1,0,0,1,-65.3039,-1092.12)">
            <g transform="matrix(2.10489,0,0,2.10489,-653.467,218.646)">
                <g transform="matrix(250.438,0,0,250.438,635.82,994.526)">
                    <path d="M0.275,-0.553C0.259,-0.552 0.244,-0.549 0.23,-0.545C0.216,-0.54 0.204,-0.535 0.194,-0.529C0.183,-0.523 0.175,-0.516 0.169,-0.51C0.163,-0.504 0.16,-0.498 0.16,-0.493C0.16,-0.489 0.162,-0.486 0.164,-0.483C0.167,-0.481 0.17,-0.479 0.173,-0.479C0.179,-0.485 0.187,-0.492 0.196,-0.499C0.205,-0.505 0.216,-0.511 0.228,-0.517C0.24,-0.522 0.255,-0.527 0.271,-0.53C0.286,-0.533 0.304,-0.535 0.324,-0.535C0.337,-0.535 0.351,-0.534 0.366,-0.531C0.382,-0.529 0.397,-0.525 0.412,-0.519C0.427,-0.513 0.442,-0.505 0.456,-0.496C0.47,-0.486 0.483,-0.474 0.493,-0.459C0.504,-0.445 0.513,-0.427 0.52,-0.407C0.526,-0.387 0.529,-0.364 0.529,-0.337C0.529,-0.322 0.529,-0.307 0.529,-0.29C0.528,-0.273 0.528,-0.257 0.528,-0.242C0.528,-0.219 0.53,-0.201 0.535,-0.186C0.54,-0.171 0.549,-0.16 0.563,-0.151C0.563,-0.149 0.563,-0.146 0.563,-0.142L0.563,-0.133C0.563,-0.11 0.56,-0.09 0.553,-0.072C0.546,-0.054 0.536,-0.039 0.523,-0.027C0.511,-0.015 0.497,-0.006 0.48,-0C0.464,0.006 0.446,0.009 0.428,0.009C0.408,0.009 0.39,0.006 0.372,0.001C0.354,-0.005 0.338,-0.013 0.325,-0.026C0.311,-0.038 0.301,-0.054 0.293,-0.073C0.285,-0.093 0.281,-0.117 0.281,-0.146C0.281,-0.161 0.281,-0.176 0.282,-0.189C0.284,-0.203 0.285,-0.216 0.286,-0.228C0.288,-0.24 0.289,-0.251 0.291,-0.261C0.292,-0.271 0.292,-0.28 0.292,-0.289C0.292,-0.304 0.291,-0.315 0.287,-0.321C0.284,-0.326 0.278,-0.329 0.271,-0.329C0.266,-0.329 0.262,-0.328 0.257,-0.325L0.264,-0.246C0.262,-0.236 0.261,-0.226 0.26,-0.216C0.258,-0.206 0.257,-0.197 0.257,-0.188C0.256,-0.179 0.256,-0.171 0.255,-0.164C0.255,-0.157 0.255,-0.151 0.255,-0.146C0.255,-0.121 0.257,-0.1 0.262,-0.083C0.267,-0.067 0.273,-0.053 0.28,-0.041C0.265,-0.026 0.247,-0.014 0.224,-0.005C0.201,0.004 0.175,0.009 0.146,0.009C0.131,0.009 0.116,0.007 0.101,0.002C0.086,-0.002 0.072,-0.008 0.06,-0.017C0.048,-0.025 0.038,-0.036 0.03,-0.049C0.022,-0.062 0.018,-0.077 0.018,-0.095L0.018,-0.665C0.033,-0.673 0.052,-0.681 0.073,-0.687C0.095,-0.693 0.118,-0.696 0.141,-0.696C0.158,-0.696 0.175,-0.694 0.191,-0.69C0.207,-0.687 0.221,-0.681 0.234,-0.674C0.246,-0.666 0.256,-0.656 0.264,-0.644C0.272,-0.632 0.275,-0.617 0.275,-0.6L0.275,-0.553Z" style="fill:rgb(121,74,58);fill-rule:nonzero;"/>
                </g>
            </g>
            <g transform="matrix(2.00288,0,0,2.00288,-672.222,635.743)">
                <g transform="matrix(250.438,0,0,250.438,635.82,994.526)">
                    <path d="M0.256,-0.157C0.256,-0.156 0.256,-0.155 0.255,-0.153C0.255,-0.152 0.255,-0.15 0.255,-0.148C0.255,-0.142 0.26,-0.137 0.27,-0.134C0.28,-0.132 0.293,-0.13 0.31,-0.13C0.334,-0.13 0.357,-0.132 0.38,-0.136C0.403,-0.141 0.423,-0.146 0.439,-0.153C0.459,-0.148 0.475,-0.14 0.489,-0.129C0.502,-0.119 0.513,-0.107 0.521,-0.093C0.53,-0.08 0.536,-0.066 0.54,-0.05C0.544,-0.035 0.545,-0.02 0.545,-0.005C0.545,0.026 0.539,0.053 0.525,0.077C0.511,0.101 0.492,0.121 0.468,0.137C0.443,0.153 0.414,0.165 0.379,0.174C0.345,0.182 0.308,0.186 0.267,0.186C0.226,0.186 0.191,0.182 0.16,0.175C0.13,0.167 0.105,0.156 0.084,0.143C0.064,0.13 0.049,0.115 0.039,0.097C0.028,0.08 0.023,0.061 0.023,0.042C0.023,0.033 0.024,0.024 0.027,0.016C0.029,0.008 0.031,0.001 0.035,-0.006C0.038,-0.013 0.042,-0.019 0.047,-0.024C0.051,-0.029 0.056,-0.033 0.061,-0.035C0.076,-0.022 0.099,-0.011 0.13,-0.002C0.162,0.006 0.2,0.011 0.244,0.011C0.269,0.011 0.286,0.01 0.295,0.007C0.305,0.005 0.31,0 0.31,-0.007C0.31,-0.009 0.309,-0.011 0.309,-0.012C0.308,-0.014 0.307,-0.015 0.307,-0.017C0.299,-0.015 0.289,-0.014 0.277,-0.013C0.266,-0.012 0.255,-0.011 0.246,-0.011C0.218,-0.011 0.191,-0.013 0.166,-0.017C0.14,-0.021 0.117,-0.028 0.097,-0.038C0.078,-0.048 0.062,-0.061 0.05,-0.076C0.038,-0.092 0.032,-0.112 0.032,-0.135C0.032,-0.151 0.035,-0.167 0.042,-0.181C0.049,-0.196 0.059,-0.207 0.073,-0.215C0.065,-0.219 0.058,-0.226 0.05,-0.233C0.042,-0.241 0.035,-0.25 0.029,-0.261C0.023,-0.272 0.018,-0.285 0.014,-0.299C0.01,-0.314 0.008,-0.33 0.008,-0.348C0.008,-0.38 0.015,-0.409 0.027,-0.434C0.04,-0.459 0.058,-0.48 0.08,-0.497C0.103,-0.514 0.129,-0.528 0.16,-0.537C0.191,-0.546 0.225,-0.55 0.261,-0.55C0.282,-0.55 0.301,-0.548 0.319,-0.545C0.337,-0.541 0.353,-0.537 0.366,-0.532L0.366,-0.566C0.373,-0.569 0.383,-0.572 0.396,-0.574C0.409,-0.576 0.423,-0.578 0.438,-0.578C0.454,-0.578 0.468,-0.576 0.481,-0.574C0.494,-0.572 0.505,-0.568 0.515,-0.562C0.524,-0.555 0.531,-0.547 0.537,-0.536C0.542,-0.525 0.545,-0.51 0.545,-0.493C0.545,-0.485 0.544,-0.477 0.543,-0.469C0.542,-0.461 0.541,-0.454 0.538,-0.446C0.535,-0.436 0.529,-0.425 0.523,-0.414C0.527,-0.404 0.53,-0.392 0.532,-0.38C0.535,-0.368 0.536,-0.352 0.536,-0.334C0.536,-0.304 0.53,-0.278 0.519,-0.256C0.508,-0.233 0.493,-0.214 0.473,-0.199C0.453,-0.183 0.429,-0.172 0.401,-0.164C0.374,-0.156 0.343,-0.152 0.31,-0.152C0.299,-0.152 0.289,-0.153 0.279,-0.154C0.269,-0.155 0.261,-0.156 0.256,-0.157ZM0.292,-0.35C0.292,-0.356 0.29,-0.36 0.288,-0.363C0.286,-0.366 0.283,-0.368 0.278,-0.368C0.275,-0.368 0.272,-0.367 0.27,-0.365C0.267,-0.362 0.266,-0.359 0.266,-0.353L0.266,-0.303C0.269,-0.3 0.272,-0.299 0.276,-0.299C0.283,-0.299 0.287,-0.302 0.289,-0.306C0.291,-0.31 0.292,-0.317 0.292,-0.327L0.292,-0.35Z" style="fill:rgb(121,74,58);fill-rule:nonzero;"/>
                </g>
            </g>
            <g transform="matrix(2.00288,0,0,2.00288,194.375,693.979)">
                <g transform="matrix(250.438,0,0,250.438,635.82,994.526)">
                    <path d="M0.528,-0.246C0.528,-0.224 0.531,-0.204 0.536,-0.188C0.541,-0.172 0.55,-0.16 0.563,-0.151C0.564,-0.149 0.564,-0.146 0.564,-0.142L0.564,-0.133C0.564,-0.109 0.56,-0.087 0.552,-0.069C0.544,-0.051 0.534,-0.037 0.522,-0.025C0.509,-0.014 0.495,-0.005 0.479,0C0.463,0.006 0.447,0.009 0.43,0.009C0.418,0.009 0.407,0.007 0.396,0.005C0.385,0.002 0.374,-0.002 0.364,-0.007C0.354,-0.013 0.345,-0.02 0.337,-0.028C0.329,-0.037 0.323,-0.047 0.318,-0.058C0.307,-0.058 0.302,-0.053 0.302,-0.042C0.302,-0.037 0.304,-0.032 0.307,-0.026C0.311,-0.019 0.316,-0.014 0.323,-0.008C0.313,-0.003 0.302,0.001 0.288,0.004C0.274,0.007 0.261,0.009 0.248,0.009C0.229,0.009 0.21,0.007 0.19,0.002C0.171,-0.002 0.153,-0.009 0.135,-0.018C0.118,-0.027 0.101,-0.039 0.086,-0.053C0.071,-0.068 0.057,-0.085 0.046,-0.106C0.035,-0.126 0.026,-0.149 0.02,-0.176C0.013,-0.202 0.01,-0.232 0.01,-0.266C0.01,-0.308 0.016,-0.346 0.029,-0.379C0.042,-0.413 0.059,-0.441 0.081,-0.463C0.104,-0.486 0.13,-0.503 0.16,-0.515C0.191,-0.527 0.224,-0.533 0.259,-0.533C0.284,-0.533 0.305,-0.531 0.324,-0.526C0.342,-0.521 0.358,-0.515 0.371,-0.509C0.373,-0.51 0.374,-0.512 0.375,-0.514C0.376,-0.517 0.376,-0.518 0.376,-0.52C0.376,-0.525 0.373,-0.53 0.366,-0.534C0.36,-0.538 0.351,-0.542 0.341,-0.545C0.331,-0.548 0.319,-0.551 0.307,-0.552C0.295,-0.554 0.283,-0.555 0.272,-0.555C0.272,-0.561 0.272,-0.568 0.271,-0.575C0.271,-0.583 0.27,-0.59 0.269,-0.597C0.268,-0.604 0.266,-0.611 0.265,-0.617C0.263,-0.624 0.261,-0.63 0.259,-0.635C0.266,-0.644 0.274,-0.652 0.283,-0.659C0.292,-0.667 0.302,-0.673 0.313,-0.678C0.324,-0.684 0.336,-0.688 0.349,-0.691C0.363,-0.694 0.378,-0.696 0.396,-0.696C0.414,-0.696 0.432,-0.693 0.448,-0.688C0.465,-0.682 0.479,-0.674 0.49,-0.663C0.502,-0.652 0.512,-0.639 0.518,-0.623C0.525,-0.607 0.528,-0.589 0.528,-0.568L0.528,-0.246ZM0.29,-0.269C0.29,-0.279 0.29,-0.288 0.29,-0.296C0.29,-0.304 0.291,-0.31 0.291,-0.316C0.291,-0.322 0.292,-0.327 0.292,-0.332C0.293,-0.336 0.293,-0.341 0.294,-0.346C0.293,-0.347 0.291,-0.349 0.289,-0.35C0.288,-0.351 0.285,-0.351 0.282,-0.351C0.279,-0.351 0.276,-0.35 0.274,-0.348C0.271,-0.346 0.269,-0.342 0.268,-0.335C0.266,-0.329 0.265,-0.321 0.264,-0.311C0.264,-0.3 0.264,-0.288 0.264,-0.273L0.264,-0.224C0.264,-0.215 0.265,-0.209 0.267,-0.205C0.269,-0.202 0.273,-0.2 0.279,-0.2C0.284,-0.2 0.287,-0.201 0.29,-0.203L0.29,-0.269Z" style="fill:rgb(121,74,58);fill-rule:nonzero;"/>
                </g>
            </g>
            <g transform="matrix(2.00288,0,0,2.00288,477.074,691.336)">
                <g transform="matrix(250.438,0,0,250.438,635.82,994.526)">
                    <path d="M0.305,-0.385C0.299,-0.385 0.294,-0.385 0.29,-0.385C0.285,-0.384 0.28,-0.384 0.277,-0.383C0.273,-0.381 0.27,-0.38 0.268,-0.377C0.265,-0.375 0.264,-0.372 0.264,-0.368L0.264,-0.365C0.264,-0.364 0.264,-0.363 0.265,-0.362C0.27,-0.363 0.275,-0.363 0.279,-0.363L0.291,-0.363C0.307,-0.363 0.324,-0.362 0.341,-0.359C0.358,-0.357 0.375,-0.353 0.391,-0.347C0.407,-0.342 0.422,-0.334 0.437,-0.325C0.451,-0.316 0.463,-0.305 0.474,-0.292C0.484,-0.279 0.493,-0.264 0.499,-0.246C0.505,-0.229 0.508,-0.208 0.508,-0.186C0.508,-0.152 0.502,-0.123 0.49,-0.097C0.478,-0.072 0.46,-0.051 0.438,-0.035C0.416,-0.018 0.389,-0.006 0.357,0.003C0.325,0.011 0.29,0.015 0.251,0.015C0.216,0.015 0.183,0.012 0.153,0.006C0.123,-0 0.098,-0.01 0.077,-0.022C0.056,-0.034 0.039,-0.05 0.027,-0.069C0.016,-0.087 0.01,-0.109 0.01,-0.135C0.01,-0.144 0.011,-0.153 0.013,-0.162C0.015,-0.17 0.018,-0.178 0.022,-0.186C0.026,-0.193 0.03,-0.199 0.034,-0.204C0.039,-0.21 0.043,-0.214 0.048,-0.217C0.056,-0.21 0.066,-0.204 0.078,-0.197C0.091,-0.19 0.105,-0.184 0.121,-0.179C0.137,-0.174 0.155,-0.17 0.174,-0.167C0.193,-0.163 0.213,-0.162 0.234,-0.162C0.244,-0.162 0.25,-0.163 0.253,-0.166C0.255,-0.168 0.257,-0.172 0.257,-0.176C0.257,-0.179 0.256,-0.181 0.255,-0.184C0.252,-0.184 0.249,-0.184 0.247,-0.184L0.242,-0.184C0.21,-0.184 0.18,-0.187 0.151,-0.193C0.123,-0.2 0.098,-0.21 0.076,-0.224C0.055,-0.239 0.038,-0.257 0.025,-0.278C0.012,-0.3 0.006,-0.326 0.006,-0.357C0.006,-0.383 0.011,-0.408 0.021,-0.431C0.032,-0.454 0.048,-0.475 0.069,-0.492C0.09,-0.51 0.117,-0.524 0.148,-0.534C0.18,-0.545 0.218,-0.55 0.261,-0.55C0.282,-0.55 0.302,-0.549 0.322,-0.546C0.341,-0.544 0.36,-0.54 0.377,-0.536C0.394,-0.532 0.41,-0.527 0.424,-0.521C0.439,-0.516 0.451,-0.51 0.462,-0.503C0.465,-0.497 0.468,-0.487 0.469,-0.476C0.47,-0.465 0.471,-0.454 0.471,-0.444C0.471,-0.422 0.468,-0.403 0.461,-0.388C0.455,-0.373 0.447,-0.361 0.438,-0.353C0.431,-0.357 0.422,-0.361 0.413,-0.365C0.403,-0.369 0.392,-0.372 0.381,-0.375C0.369,-0.378 0.357,-0.38 0.344,-0.382C0.331,-0.384 0.318,-0.385 0.305,-0.385Z" style="fill:rgb(121,74,58);fill-rule:nonzero;"/>
                </g>
            </g>
            <g transform="matrix(0.667297,0,0,0.674107,976.714,1257.44)">
                <path d="M439.473,1260.95C449.826,1286.51 455.521,1314.38 455.521,1343.56C455.521,1466.67 354.144,1566.61 229.276,1566.61C104.408,1566.61 3.031,1466.67 3.031,1343.56C3.031,1239.48 75.503,1151.95 173.37,1127.38C173.368,1127.59 173.367,1127.79 173.367,1128C173.367,1178.68 217.384,1219.84 271.6,1219.84C283.987,1219.84 295.842,1217.69 306.761,1213.77C314.496,1250.41 348.067,1278.01 388.257,1278.01C407.568,1278.01 425.35,1271.64 439.473,1260.95ZM144.767,1388.45C146.73,1386.69 146.915,1383.65 145.18,1381.66L138.893,1374.44C137.158,1372.45 134.155,1372.26 132.192,1374.02L103.763,1399.51C101.799,1401.27 101.614,1404.32 103.349,1406.31L109.637,1413.52C111.372,1415.52 114.374,1415.7 116.337,1413.94L144.767,1388.45ZM229.156,1488.37C226.433,1488.98 224.705,1491.71 225.297,1494.47L227.446,1504.48C228.038,1507.24 230.73,1508.99 233.452,1508.39L273.281,1499.59C276.003,1498.99 277.732,1496.26 277.139,1493.5L274.991,1483.49C274.398,1480.73 271.707,1478.98 268.984,1479.58L229.156,1488.37ZM118.672,1240.52C118.672,1237.33 116.122,1234.74 112.982,1234.74L101.602,1234.74C98.461,1234.74 95.912,1237.33 95.912,1240.52L95.912,1282.25C95.912,1285.44 98.461,1288.03 101.602,1288.03L112.982,1288.03C116.122,1288.03 118.672,1285.44 118.672,1282.25L118.672,1240.52ZM376.778,1352.12C378.837,1350.49 379.201,1347.47 377.591,1345.38L371.755,1337.81C370.145,1335.72 367.166,1335.35 365.107,1336.99L334.472,1361.29C332.413,1362.92 332.049,1365.95 333.66,1368.04L339.495,1375.61C341.106,1377.69 344.085,1378.06 346.144,1376.43L376.778,1352.12ZM245.663,1321.41C246.424,1318.88 245.009,1316.19 242.507,1315.42L233.439,1312.62C230.937,1311.85 228.288,1313.28 227.528,1315.82L218.059,1347.43C217.299,1349.97 218.713,1352.65 221.215,1353.42L230.283,1356.22C232.785,1356.99 235.434,1355.56 236.195,1353.02L245.663,1321.41Z" style="fill:rgb(121,74,58);"/>
            </g>
            <g transform="matrix(0.988494,0,0,1.01679,-151.647,1447.53)">
                <path d="M1496.97,732.852L1463.74,717.633L1465,679.856L1497.24,667.618C1500.23,656.288 1504.73,645.558 1510.5,635.65L1497.55,610.019L1522.09,581.273L1553.09,591.223C1566.47,582.628 1581.52,576.379 1597.65,573.065L1608.46,547.216L1646.26,547.216L1657.7,574.583C1673.35,578.64 1687.87,585.487 1700.67,594.555L1727.31,583.503L1754.14,610.124L1741.47,641.381C1746.32,650.765 1750.06,660.808 1752.51,671.336L1779.82,681.702L1781.08,719.479L1751.85,732.865C1748.86,744.525 1744.3,755.56 1738.38,765.731L1751.97,792.61L1727.43,821.356L1694.78,810.877C1682.64,818.528 1669.15,824.26 1654.75,827.64L1644.04,853.254L1606.24,853.254L1595.68,828.007C1579.02,824.318 1563.55,817.489 1549.93,808.181L1518.9,821.056L1492.07,794.435L1506.59,758.621C1502.52,750.477 1499.27,741.85 1496.97,732.852ZM1624.41,668.149C1606.27,668.149 1591.54,682.755 1591.54,700.746C1591.54,718.737 1606.27,733.343 1624.41,733.343C1642.55,733.343 1657.28,718.737 1657.28,700.746C1657.28,682.755 1642.55,668.149 1624.41,668.149Z" style="fill:rgb(121,74,58);"/>
            </g>
            <g transform="matrix(1.00313,0,0,1.05084,465.112,1199.95)">
                <path d="M791.402,1371.42C791.917,1377.53 789.978,1383.6 786.013,1388.28C782.048,1392.96 776.383,1395.87 770.27,1396.36C754.017,1397.64 737.295,1392.56 724.14,1380.9C690.743,1351.13 669.681,1307.63 669.681,1259.22C669.681,1169.54 741.971,1096.72 831.011,1096.72C920.052,1096.72 992.342,1169.54 992.342,1259.22C992.342,1262.91 992.22,1266.57 991.979,1270.2C990.779,1288.39 982.336,1305.34 968.538,1317.26C954.74,1329.18 936.633,1336.07 918.565,1333.62C913.806,1332.97 894.89,1320.8 891.354,1320.8C890.657,1320.8 875.642,1307.5 854.167,1307.5C819.421,1307.5 791.212,1334.07 791.212,1366.78C791.212,1368.34 791.276,1369.89 791.402,1371.42ZM752.405,1216.38C754.572,1217.61 757.036,1218.31 759.648,1218.31C768.292,1218.31 775.31,1210.69 775.31,1201.31C775.31,1193.56 770.519,1187.02 763.979,1184.98C763.981,1184.86 763.982,1184.74 763.982,1184.62C763.982,1175.24 756.964,1167.62 748.319,1167.62C739.675,1167.62 732.657,1175.24 732.657,1184.62C732.657,1186.32 732.887,1187.95 733.314,1189.5C729.225,1192.57 726.543,1197.69 726.543,1203.49C726.543,1212.87 733.561,1220.49 742.205,1220.49C746.1,1220.49 749.664,1218.94 752.405,1216.38ZM933.057,1267.64C920.405,1267.64 910.133,1277.67 910.133,1290.04C910.133,1302.4 920.405,1312.43 933.057,1312.43C945.708,1312.43 955.98,1302.4 955.98,1290.04C955.98,1277.67 945.708,1267.64 933.057,1267.64ZM813.871,1171.57C815.643,1176.37 818.767,1180.29 823.088,1182.57C834.051,1188.34 848.598,1181.37 855.554,1166.99C862.51,1152.62 859.256,1136.26 848.294,1130.48C844.321,1128.38 839.878,1127.96 835.495,1128.96C832.869,1128.29 830.077,1127.92 827.182,1127.92C811.753,1127.92 799.227,1138.33 799.227,1151.14C799.227,1159.96 805.152,1167.63 813.871,1171.57ZM714.427,1287.8C716.05,1301.24 723.891,1311.44 733.307,1311.44C740.925,1311.44 747.512,1304.76 750.61,1295.09C761.144,1291.44 768.497,1283.21 768.497,1273.65C768.497,1260.7 755.018,1250.19 738.415,1250.19C721.813,1250.19 708.334,1260.7 708.334,1273.65C708.334,1278.96 710.603,1283.86 714.427,1287.8Z" style="fill:rgb(121,74,58);"/>
            </g>
            <g transform="matrix(1,0,0,1,1617.99,1943.58)">
                <g transform="matrix(527.144,0,0,527.144,0,366.787)">
                    <path d="M0.528,-0.246C0.528,-0.224 0.531,-0.204 0.536,-0.188C0.541,-0.172 0.55,-0.16 0.563,-0.151C0.564,-0.149 0.564,-0.146 0.564,-0.142L0.564,-0.133C0.564,-0.109 0.56,-0.087 0.552,-0.069C0.544,-0.051 0.534,-0.037 0.522,-0.025C0.509,-0.014 0.495,-0.005 0.479,0C0.463,0.006 0.447,0.009 0.43,0.009C0.418,0.009 0.407,0.007 0.396,0.005C0.385,0.002 0.374,-0.002 0.364,-0.007C0.354,-0.013 0.345,-0.02 0.337,-0.028C0.329,-0.037 0.323,-0.047 0.318,-0.058C0.307,-0.058 0.302,-0.053 0.302,-0.042C0.302,-0.037 0.304,-0.032 0.307,-0.026C0.311,-0.019 0.316,-0.014 0.323,-0.008C0.313,-0.003 0.302,0.001 0.288,0.004C0.274,0.007 0.261,0.009 0.248,0.009C0.229,0.009 0.21,0.007 0.19,0.002C0.171,-0.002 0.153,-0.009 0.135,-0.018C0.118,-0.027 0.101,-0.039 0.086,-0.053C0.071,-0.068 0.057,-0.085 0.046,-0.106C0.035,-0.126 0.026,-0.149 0.02,-0.176C0.013,-0.202 0.01,-0.232 0.01,-0.266C0.01,-0.308 0.016,-0.346 0.029,-0.379C0.042,-0.413 0.059,-0.441 0.081,-0.463C0.104,-0.486 0.13,-0.503 0.16,-0.515C0.191,-0.527 0.224,-0.533 0.259,-0.533C0.284,-0.533 0.305,-0.531 0.324,-0.526C0.342,-0.521 0.358,-0.515 0.371,-0.509C0.373,-0.51 0.374,-0.512 0.375,-0.514C0.376,-0.517 0.376,-0.518 0.376,-0.52C0.376,-0.525 0.373,-0.53 0.366,-0.534C0.36,-0.538 0.351,-0.542 0.341,-0.545C0.331,-0.548 0.319,-0.551 0.307,-0.552C0.295,-0.554 0.283,-0.555 0.272,-0.555C0.272,-0.561 0.272,-0.568 0.271,-0.575C0.271,-0.583 0.27,-0.59 0.269,-0.597C0.268,-0.604 0.266,-0.611 0.265,-0.617C0.263,-0.624 0.261,-0.63 0.259,-0.635C0.266,-0.644 0.274,-0.652 0.283,-0.659C0.292,-0.667 0.302,-0.673 0.313,-0.678C0.324,-0.684 0.336,-0.688 0.349,-0.691C0.363,-0.694 0.378,-0.696 0.396,-0.696C0.414,-0.696 0.432,-0.693 0.448,-0.688C0.465,-0.682 0.479,-0.674 0.49,-0.663C0.502,-0.652 0.512,-0.639 0.518,-0.623C0.525,-0.607 0.528,-0.589 0.528,-0.568L0.528,-0.246ZM0.29,-0.269C0.29,-0.279 0.29,-0.288 0.29,-0.296C0.29,-0.304 0.291,-0.31 0.291,-0.316C0.291,-0.322 0.292,-0.327 0.292,-0.332C0.293,-0.336 0.293,-0.341 0.294,-0.346C0.293,-0.347 0.291,-0.349 0.289,-0.35C0.288,-0.351 0.285,-0.351 0.282,-0.351C0.279,-0.351 0.276,-0.35 0.274,-0.348C0.271,-0.346 0.269,-0.342 0.268,-0.335C0.266,-0.329 0.265,-0.321 0.264,-0.311C0.264,-0.3 0.264,-0.288 0.264,-0.273L0.264,-0.224C0.264,-0.215 0.265,-0.209 0.267,-0.205C0.269,-0.202 0.273,-0.2 0.279,-0.2C0.284,-0.2 0.287,-0.201 0.29,-0.203L0.29,-0.269Z" style="fill:rgb(121,74,58);fill-rule:nonzero;"/>
                </g>
            </g>
            <g transform="matrix(1.13785,0,0,1.10825,144.138,-17.0495)">
                <path d="M667.919,2264.5L652.922,2233.66C641.734,2210.65 642.894,2183.3 655.988,2161.39C669.082,2139.48 692.24,2126.14 717.179,2126.14L803.437,2126.14C826.344,2126.14 847.649,2138.28 859.86,2158.28C872.071,2178.29 873.48,2203.37 863.591,2224.7L844.314,2266.29C856.362,2283.8 863.422,2305.04 863.422,2327.92C863.422,2369.25 840.395,2405.21 806.548,2423.54L704.43,2423.54C670.583,2405.21 647.556,2369.25 647.556,2327.92C647.556,2304.25 655.108,2282.35 667.919,2264.5ZM808.915,2233.62C823.494,2224.11 830.166,2205.68 825.146,2188.59C820.058,2171.26 804.255,2159.69 786.733,2160.45C765.673,2161.36 744.745,2161.95 724.634,2162.19C708.226,2162.32 693.901,2173.69 689.564,2190.03C685.312,2206.04 691.671,2223.01 705.158,2231.91C720.189,2223.92 737.317,2219.4 755.489,2219.4C774.92,2219.4 793.159,2224.57 808.915,2233.62ZM749.093,2248.37C734.104,2245.41 713.357,2250.33 697.883,2266.34C683.389,2281.33 676.832,2300.27 677.634,2314.88C677.803,2317.96 680.059,2320.49 683.021,2320.92C685.983,2321.35 688.825,2319.55 689.806,2316.64C693.697,2305.09 698.814,2291.85 709.199,2281.11C720.313,2269.61 736.603,2264.51 749.701,2260.44C752.358,2259.61 754.124,2257.02 753.98,2254.16C753.836,2251.3 751.819,2248.91 749.093,2248.37ZM774.954,2397.94C785.397,2397.8 797.655,2393.56 807.599,2383.93C815.312,2376.45 820.455,2367.62 823.117,2359.22C824.117,2356 822.547,2352.53 819.516,2351.26C816.485,2349.99 813.016,2351.34 811.557,2354.36C808.611,2360.55 804.783,2366.79 799.234,2372.17C791.946,2379.24 782.196,2383.03 773.271,2385.84C770.433,2386.72 768.645,2389.61 769.066,2392.64C769.487,2395.67 771.99,2397.92 774.954,2397.94Z" style="fill:rgb(121,74,58);"/>
            </g>
            <g transform="matrix(1,0,0,1,-7.09046,1429.85)">
                <ellipse cx="1160.93" cy="598.711" rx="15.369" ry="16" style="fill:rgb(121,74,58);"/>
            </g>
            <g transform="matrix(0.628986,0,0,0.620547,500.495,1701.36)">
                <ellipse cx="1160.93" cy="598.711" rx="15.369" ry="16" style="fill:rgb(121,74,58);"/>
            </g>
            <g transform="matrix(0.959963,0.280126,-0.280126,0.959963,204.822,1109.26)">
                <path d="M1224.72,562.078L1242.47,584.003L1224.72,605.928L1206.98,584.003L1224.72,562.078Z" style="fill:rgb(121,74,58);"/>
            </g>
            <g transform="matrix(0.826915,-0.562327,0.562327,0.826915,308.433,1802.73)">
                <path d="M392.423,1243.32C401.223,1257.12 412.803,1271.71 412.803,1295.65C412.803,1306.9 403.671,1316.03 392.423,1316.03C381.174,1316.03 372.042,1306.9 372.042,1295.65C372.042,1271.71 395.943,1265.92 392.423,1243.32Z" style="fill:rgb(121,74,58);"/>
            </g>
            <g transform="matrix(0.700847,0.0688672,-0.0621462,0.632448,1106.94,1790.89)">
                <path d="M392.423,1243.32C401.223,1255.21 412.803,1270.52 412.803,1293.45C412.803,1305.91 403.671,1316.03 392.423,1316.03C381.174,1316.03 372.042,1305.91 372.042,1293.45C372.042,1270.52 395.943,1264.97 392.423,1243.32Z" style="fill:rgb(121,74,58);"/>
            </g>
        </g>
        <g transform="matrix(0.783174,0,0,0.783174,-233.068,-186.244)">
            <g transform="matrix(1.67221,-0.353196,0.304885,1.44348,-722.566,-2678.16)">
                <path d="M1174.87,2522.9L1197.74,2889.49L960.286,2924.5L922.161,2520.65L1174.87,2522.9Z" style="fill:rgb(212,159,113);stroke:rgb(121,74,58);stroke-width:11.66px;"/>
            </g>
            <g transform="matrix(1.71311,-0.359706,0.0877887,0.418097,-223.94,-85.6987)">
                <path d="M970.11,2923.05L960.286,2924.5L928.23,2521.75L1174.87,2522.9L1197.49,2885.41L1170.84,2810.03L1156.63,2878.2L1136.14,2820.24L1119.3,2901.05L1113.12,2901.96L1086.37,2826.28L1069.25,2908.43L1061.98,2909.5L1035.4,2834.31L1018.39,2915.93L1012.14,2916.85L986.512,2844.34L970.11,2923.05Z" style="fill:rgb(212,159,113);stroke:rgb(121,74,58);stroke-width:14.61px;"/>
            </g>
            <g transform="matrix(-1.67221,0.353196,0.304885,1.44348,2485.63,-3355.95)">
                <path d="M997.396,2520.73L1037.62,2881.49L960.286,2924.5L997.396,2520.73Z" style="fill:rgb(152,105,71);stroke:rgb(121,74,58);stroke-width:11.66px;"/>
            </g>
            <g transform="matrix(-0.595575,-0.709961,0.127384,-0.147047,2099.16,2484.7)">
                <path d="M1315.21,2857.63C1315.21,2857.63 1329.57,2596.42 1331.37,2540.07" style="fill:none;stroke:rgb(121,74,58);stroke-width:26.97px;"/>
            </g>
            <g transform="matrix(0.576752,-0.725336,0.249402,0.140442,280.509,1739.69)">
                <path d="M1313.96,2905.13C1313.96,2905.13 1329.57,2596.42 1331.37,2540.07" style="fill:none;stroke:rgb(121,74,58);stroke-width:26.02px;"/>
            </g>
            <g transform="matrix(4.27434,-0.754667,0.470421,1.35709,-5285.67,-1757.69)">
                <path d="M1315.21,2857.63C1315.21,2857.63 1329.57,2596.42 1331.37,2540.07" style="fill:none;stroke:rgb(121,74,58);stroke-width:5.51px;"/>
            </g>
            <g transform="matrix(2.49522,2.07855,-0.180072,0.303405,-992.27,-2360.8)">
                <path d="M1299.62,2914.39C1316.06,2914.72 1341.61,2705.68 1331.37,2540.07" style="fill:none;stroke:rgb(121,74,58);stroke-width:7.93px;"/>
            </g>
            <g transform="matrix(1.56974,-2.84295,0.33196,0.119512,-955.431,4613.21)">
                <path d="M1300.58,2994.98C1316.22,2964.2 1334.85,2736.98 1331.1,2557.26" style="fill:none;stroke:rgb(121,74,58);stroke-width:7.93px;"/>
            </g>
            <g transform="matrix(1.70763,2.10806,-0.193432,0.215694,210.462,-2361.94)">
                <path d="M1314.86,2834.25C1314.86,2834.25 1323.45,2796.89 1327.74,2721.18C1331.09,2662.11 1328.61,2583.4 1328.55,2583.94" style="fill:none;stroke:rgb(121,74,58);stroke-width:9.49px;"/>
            </g>
            <g transform="matrix(0.520723,0.76011,-0.517735,0.354681,3740.77,-471.379)">
                <path d="M275.697,4171.35C280.88,4170.63 286.227,4170.26 291.693,4170.26C339.167,4170.26 377.711,4198.71 377.711,4233.77C377.711,4244.91 373.736,4255.87 366.186,4265.52L275.697,4265.52L275.697,4171.35Z" style="fill:rgb(121,74,58);stroke:rgb(121,74,58);stroke-width:13.5px;"/>
            </g>
            <g transform="matrix(0.716464,-0.579308,0.394585,0.488006,229.782,-603.767)">
                <path d="M275.697,4171.35C280.88,4170.63 286.227,4170.26 291.693,4170.26C339.167,4170.26 377.711,4198.71 377.711,4233.77C377.711,4244.91 373.736,4255.87 366.186,4265.52L275.697,4265.52L275.697,4171.35Z" style="fill:rgb(121,74,58);stroke:rgb(121,74,58);stroke-width:13.5px;"/>
            </g>
            <g transform="matrix(0.505435,0,0,0.570704,600.628,-91.3752)">
                <ellipse cx="2439.94" cy="1883.33" rx="32.417" ry="30.023" style="fill:rgb(122,74,58);"/>
            </g>
            <g transform="matrix(0.505435,0,0,0.570704,775.394,-143.75)">
                <ellipse cx="2439.94" cy="1883.33" rx="32.417" ry="30.023" style="fill:rgb(122,74,58);"/>
            </g>
        </g>
    </g>
</svg>
