<?xml version="1.0" encoding="UTF-8" standalone="no"?>
<!DOCTYPE svg PUBLIC "-//W3C//DTD SVG 1.1//EN" "http://www.w3.org/Graphics/SVG/1.1/DTD/svg11.dtd">
<svg width="100%" height="100%" viewBox="0 0 840 1020" version="1.1" xmlns="http://www.w3.org/2000/svg" xmlns:xlink="http://www.w3.org/1999/xlink" xml:space="preserve" xmlns:serif="http://www.serif.com/" style="fill-rule:evenodd;clip-rule:evenodd;stroke-linecap:round;stroke-linejoin:round;stroke-miterlimit:1.5;">
    <g transform="matrix(1.24356,0,0,1.24356,-1909.2,-644.517)">
        <g transform="matrix(1.67221,-0.353196,0.304885,1.44348,-722.566,-2678.16)">
            <path d="M1174.87,2522.9L1197.74,2889.49L960.286,2924.5L922.161,2520.65L1174.87,2522.9Z" style="fill:rgb(212,159,113);stroke:rgb(121,74,58);stroke-width:7.35px;"/>
        </g>
        <g transform="matrix(1.71311,-0.359706,0.0877887,0.418097,-223.94,-85.6987)">
            <path d="M970.11,2923.05L960.286,2924.5L928.23,2521.75L1174.87,2522.9L1197.49,2885.41L1170.84,2810.03L1156.63,2878.2L1136.14,2820.24L1119.3,2901.05L1113.12,2901.96L1086.37,2826.28L1069.25,2908.43L1061.98,2909.5L1035.4,2834.31L1018.39,2915.93L1012.14,2916.85L986.512,2844.34L970.11,2923.05Z" style="fill:rgb(212,159,113);stroke:rgb(121,74,58);stroke-width:9.2px;"/>
        </g>
        <g transform="matrix(-1.67221,0.353196,0.304885,1.44348,2485.63,-3355.95)">
            <path d="M997.396,2520.73L1037.62,2881.49L960.286,2924.5L997.396,2520.73Z" style="fill:rgb(152,105,71);stroke:rgb(121,74,58);stroke-width:7.35px;"/>
        </g>
        <g transform="matrix(-0.595575,-0.709961,0.127384,-0.147047,2099.16,2484.7)">
            <path d="M1315.21,2857.63C1315.21,2857.63 1329.57,2596.42 1331.37,2540.07" style="fill:none;stroke:rgb(121,74,58);stroke-width:16.98px;"/>
        </g>
        <g transform="matrix(0.576752,-0.725336,0.249402,0.140442,280.509,1739.69)">
            <path d="M1313.96,2905.13C1313.96,2905.13 1329.57,2596.42 1331.37,2540.07" style="fill:none;stroke:rgb(121,74,58);stroke-width:16.38px;"/>
        </g>
        <g transform="matrix(4.27434,-0.754667,0.470421,1.35709,-5285.67,-1757.69)">
            <path d="M1315.21,2857.63C1315.21,2857.63 1329.57,2596.42 1331.37,2540.07" style="fill:none;stroke:rgb(121,74,58);stroke-width:3.47px;"/>
        </g>
        <g transform="matrix(2.49522,2.07855,-0.180072,0.303405,-992.27,-2360.8)">
            <path d="M1299.62,2914.39C1316.06,2914.72 1341.61,2705.68 1331.37,2540.07" style="fill:none;stroke:rgb(121,74,58);stroke-width:4.99px;"/>
        </g>
        <g transform="matrix(1.56974,-2.84295,0.33196,0.119512,-955.431,4613.21)">
            <path d="M1300.58,2994.98C1316.22,2964.2 1334.85,2736.98 1331.1,2557.26" style="fill:none;stroke:rgb(121,74,58);stroke-width:4.99px;"/>
        </g>
        <g transform="matrix(1.70763,2.10806,-0.193432,0.215694,210.462,-2361.94)">
            <path d="M1314.86,2834.25C1314.86,2834.25 1323.45,2796.89 1327.74,2721.18C1331.09,2662.11 1328.61,2583.4 1328.55,2583.94" style="fill:none;stroke:rgb(121,74,58);stroke-width:5.98px;"/>
        </g>
        <g transform="matrix(0.520723,0.76011,-0.517735,0.354681,3740.77,-471.379)">
            <path d="M275.697,4171.35C280.88,4170.63 286.227,4170.26 291.693,4170.26C339.167,4170.26 377.711,4198.71 377.711,4233.77C377.711,4244.91 373.736,4255.87 366.186,4265.52L275.697,4265.52L275.697,4171.35Z" style="fill:rgb(121,74,58);stroke:rgb(121,74,58);stroke-width:8.5px;"/>
        </g>
        <g transform="matrix(0.716464,-0.579308,0.394585,0.488006,229.782,-603.767)">
            <path d="M275.697,4171.35C280.88,4170.63 286.227,4170.26 291.693,4170.26C339.167,4170.26 377.711,4198.71 377.711,4233.77C377.711,4244.91 373.736,4255.87 366.186,4265.52L275.697,4265.52L275.697,4171.35Z" style="fill:rgb(121,74,58);stroke:rgb(121,74,58);stroke-width:8.5px;"/>
        </g>
        <g transform="matrix(0.505435,0,0,0.570704,600.628,-91.3752)">
            <ellipse cx="2439.94" cy="1883.33" rx="32.417" ry="30.023" style="fill:rgb(122,74,58);"/>
        </g>
        <g transform="matrix(0.505435,0,0,0.570704,775.394,-143.75)">
            <ellipse cx="2439.94" cy="1883.33" rx="32.417" ry="30.023" style="fill:rgb(122,74,58);"/>
        </g>
    </g>
</svg>
